<svg width="72" height="72" viewBox="0 0 72 72" fill="none" xmlns="http://www.w3.org/2000/svg">
<rect x="33.0801" y="44.2952" width="4.66409" height="16.447" fill="#E5B539"/>
<path d="M20 66C20 62.6863 22.6863 60 26 60H45C48.3137 60 51 62.6863 51 66H20Z" fill="#E5B539"/>
<path d="M16.5885 17H9C8.44771 17 7.9991 17.4501 8.00382 18.0023C8.06363 25.0011 8.93505 29 18 29" stroke="#F3D578" stroke-width="3.20799"/>
<path d="M54.4115 17H62C62.5523 17 63.0009 17.4501 62.9962 18.0023C62.9364 25.0011 62.065 29 53 29" stroke="#FBC420" stroke-width="3.20799"/>
<path d="M56.4461 31.1855C56.4461 42.8527 46.9879 52.3109 35.3207 52.3109C23.6535 52.3109 14.1953 42.8527 14.1953 31.1855C14.1953 19.5182 23.6535 10.0601 35.3207 10.0601C46.9879 10.0601 56.4461 19.5182 56.4461 31.1855Z" fill="url(#paint0_linear_86_543)"/>
<path d="M14.1953 8C14.1953 6.89543 15.0907 6 16.1953 6H54.4461C55.5507 6 56.4461 6.89543 56.4461 8V30.1983H14.1953V8Z" fill="url(#paint1_linear_86_543)"/>
<path d="M35.7105 18.2848L38.9135 24.6907L45.3195 25.4915L40.9207 30.4241L42.1165 37.5027L35.7105 34.2997L29.3045 37.5027L30.511 30.4241L26.1016 25.4915L32.5075 24.6907L35.7105 18.2848Z" fill="white"/>
<defs>
<linearGradient id="paint0_linear_86_543" x1="27.3273" y1="27.5909" x2="48.4647" y2="41.1209" gradientUnits="userSpaceOnUse">
<stop stop-color="#F2D477"/>
<stop offset="1" stop-color="#FBC31F"/>
</linearGradient>
<linearGradient id="paint1_linear_86_543" x1="27.3273" y1="27.5909" x2="48.4647" y2="41.1209" gradientUnits="userSpaceOnUse">
<stop stop-color="#F2D477"/>
<stop offset="1" stop-color="#FBC31F"/>
</linearGradient>
</defs>
</svg>
