<svg width="64" height="46" viewBox="0 0 64 46" fill="none" xmlns="http://www.w3.org/2000/svg">
<path d="M49.1289 1.07657C42.8148 -0.793743 40.832 2.75001 32.0008 2.75001C23.1695 2.75001 21.1867 -0.807805 14.8726 1.07657C8.55857 2.94688 5.40857 9.57032 2.42732 22.0016C-0.553928 34.4469 -0.00549001 43.4328 3.51013 45.1063C7.02576 46.7797 10.9914 42.9406 14.7742 38.2016C17.8398 34.4891 19.3726 34.25 32.0008 34.25C44.6148 34.25 45.9226 34.3484 49.2273 38.2016C53.0101 42.9406 56.9758 46.7797 60.4914 45.1063C64.007 43.4328 64.5554 34.4469 61.5742 22.0016C58.5929 9.57032 55.4289 2.96094 49.1289 1.07657ZM14.0289 24.0828C10.9773 24.0828 8.50232 21.5938 8.50232 18.5141C8.50232 15.4484 10.9773 12.9453 14.0289 12.9453C17.0804 12.9453 19.5554 15.4484 19.5554 18.5141C19.5554 21.5797 17.0804 24.0828 14.0289 24.0828ZM39.5523 21.2563C38.0617 21.2563 36.8383 20.0328 36.8383 18.5281C36.8383 17.0234 38.0617 15.8 39.5523 15.8C41.057 15.8 42.2804 17.0234 42.2804 18.5281C42.2664 20.0328 41.057 21.2563 39.5523 21.2563ZM45.4867 27.2188C43.9961 27.2188 42.7726 25.9953 42.7726 24.4906C42.7726 22.9719 43.9961 21.7625 45.4867 21.7625C46.9914 21.7625 48.2148 22.9859 48.2148 24.4906C48.2148 26.0094 46.9914 27.2188 45.4867 27.2188ZM45.4867 15.2797C43.9961 15.2797 42.7726 14.0563 42.7726 12.5516C42.7726 11.0469 43.9961 9.82345 45.4867 9.82345C46.9914 9.82345 48.2148 11.0469 48.2148 12.5516C48.2148 14.0563 46.9914 15.2797 45.4867 15.2797ZM51.4351 21.2563C49.9304 21.2563 48.7211 20.0328 48.7211 18.5281C48.7211 17.0234 49.9445 15.8 51.4351 15.8C52.9258 15.8 54.1492 17.0234 54.1492 18.5281C54.1492 20.0328 52.9398 21.2563 51.4351 21.2563Z" fill="url(#paint0_linear_86_530)"/>
<defs>
<linearGradient id="paint0_linear_86_530" x1="8.50076" y1="10" x2="36.3083" y2="40.3413" gradientUnits="userSpaceOnUse">
<stop stop-color="#F2D477"/>
<stop offset="1" stop-color="#F8C326"/>
</linearGradient>
</defs>
</svg>
