<svg width="14" height="15" viewBox="0 0 14 15" fill="none" xmlns="http://www.w3.org/2000/svg">
<path d="M2.00065 14.5833C1.54232 14.5833 1.14982 14.42 0.823152 14.0933C0.496486 13.7667 0.33343 13.3744 0.333986 12.9167V5.41667C0.333986 5.15278 0.393152 4.90278 0.511486 4.66667C0.629819 4.43056 0.792875 4.23611 1.00065 4.08333L6.00065 0.333333C6.15343 0.222222 6.31315 0.138889 6.47982 0.0833333C6.64649 0.0277777 6.8201 0 7.00065 0C7.18121 0 7.35482 0.0277777 7.52149 0.0833333C7.68815 0.138889 7.84787 0.222222 8.00065 0.333333L13.0007 4.08333C13.209 4.23611 13.3723 4.43056 13.4907 4.66667C13.609 4.90278 13.6679 5.15278 13.6673 5.41667V12.9167C13.6673 13.375 13.504 13.7675 13.1773 14.0942C12.8507 14.4208 12.4584 14.5839 12.0007 14.5833H8.66732V8.75H5.33399V14.5833H2.00065Z" fill="#05203E" fill-opacity="0.88"/>
</svg>
