<svg width="72" height="72" viewBox="0 0 72 72" fill="none" xmlns="http://www.w3.org/2000/svg">
<path d="M30.7033 5.51785C33.592 2.50857 38.408 2.50857 41.2967 5.51785C43.0937 7.38983 45.7471 8.17373 48.2726 7.57758C52.3119 6.62409 56.3501 9.27631 57.162 13.3465C57.6709 15.8976 59.4865 18.0322 61.9347 18.9118C65.8549 20.3202 67.8271 24.7302 66.3252 28.6154C65.3844 31.049 65.7732 33.8331 67.3585 35.9055C69.8996 39.2275 69.2267 44.0046 65.8524 46.4759C63.7501 48.0156 62.6066 50.5801 62.8301 53.1763C63.1862 57.3145 60.0594 61.0009 55.9126 61.236C53.3195 61.383 50.9847 62.9049 49.7847 65.2084C47.8641 68.8951 43.244 70.2827 39.6355 68.2188C37.383 66.9306 34.617 66.9306 32.3645 68.2188C28.756 70.2827 24.1359 68.8951 22.2153 65.2084C21.0153 62.9049 18.6805 61.383 16.0874 61.236C11.9406 61.0009 8.81378 57.3145 9.16994 53.1763C9.39338 50.5801 8.24988 48.0156 6.14759 46.4759C2.77331 44.0046 2.10044 39.2275 4.64155 35.9055C6.22676 33.8331 6.61559 31.049 5.67482 28.6154C4.17288 24.7302 6.14514 20.3202 10.0653 18.9118C12.5135 18.0322 14.3291 15.8976 14.838 13.3465C15.6499 9.27631 19.6881 6.62409 23.7274 7.57758C26.2529 8.17373 28.9063 7.38983 30.7033 5.51785Z" fill="url(#paint0_linear_86_555)"/>
<path d="M32.4409 41.4235L27.6483 36.5816C27.3902 36.3203 27.0399 36.1735 26.6746 36.1735C26.3092 36.1735 25.9589 36.3203 25.7009 36.5816C25.1622 37.1258 25.1622 38.0049 25.7009 38.549L31.4741 44.3816C32.0127 44.9258 32.8828 44.9258 33.4215 44.3816L48.034 29.6188C48.5726 29.0746 48.5726 28.1956 48.034 27.6514C47.7759 27.3901 47.4256 27.2432 47.0603 27.2432C46.6949 27.2432 46.3446 27.3901 46.0866 27.6514L32.4409 41.4235Z" fill="white" stroke="#FDFDFD" stroke-width="1.06873"/>
<defs>
<linearGradient id="paint0_linear_86_555" x1="22.3784" y1="33.5676" x2="56.4067" y2="57.4421" gradientUnits="userSpaceOnUse">
<stop stop-color="#F2D477"/>
<stop offset="1" stop-color="#FBC31F"/>
</linearGradient>
</defs>
</svg>
