<svg width="72" height="72" viewBox="0 0 72 72" fill="none" xmlns="http://www.w3.org/2000/svg">
<path d="M31.3898 3.95934C34.0414 1.68206 37.9586 1.68206 40.6102 3.95934C42.316 5.42434 44.6166 5.99138 46.8079 5.48693C50.2141 4.70278 53.6826 6.52317 54.9722 9.77188C55.8018 11.8618 57.5754 13.433 59.75 14.0047C63.1305 14.8933 65.3557 18.1171 64.9878 21.593C64.7512 23.8291 65.5914 26.0445 67.2514 27.5613C69.8316 29.9191 70.3038 33.8077 68.3627 36.7145C67.114 38.5845 66.8284 40.9367 67.5933 43.0512C68.7823 46.338 67.3933 50.0006 64.3237 51.6724C62.349 52.7479 61.003 54.6979 60.6977 56.9256C60.223 60.3886 57.291 62.9861 53.7961 63.0399C51.5478 63.0745 49.4497 64.1757 48.1441 66.0063C46.1145 68.852 42.3112 69.7894 39.1916 68.2129C37.1847 67.1987 34.8153 67.1987 32.8084 68.2129C29.6888 69.7894 25.8855 68.852 23.8559 66.0063C22.5502 64.1757 20.4522 63.0745 18.2039 63.0399C14.709 62.9861 11.777 60.3886 11.3023 56.9256C10.997 54.6979 9.65096 52.7479 7.67626 51.6724C4.60669 50.0006 3.21765 46.338 4.40666 43.0512C5.17156 40.9367 4.88596 38.5845 3.63725 36.7145C1.6962 33.8077 2.16836 29.9191 4.74865 27.5613C6.40859 26.0445 7.2488 23.8291 7.01215 21.593C6.64429 18.1171 8.86949 14.8933 12.25 14.0047C14.4247 13.433 16.1982 11.8618 17.0278 9.77188C18.3174 6.52317 21.7859 4.70278 25.1921 5.48693C27.3834 5.99138 29.684 5.42434 31.3898 3.95934Z" fill="url(#paint0_linear_86_534)"/>
<circle cx="36.4679" cy="35.5325" r="20.5714" fill="#E9BB46"/>
<path d="M36.5 23L40.3333 30.6667L48 31.625L42.7356 37.5283L44.1667 46L36.5 42.1667L28.8333 46L30.2772 37.5283L25 31.625L32.6667 30.6667L36.5 23Z" fill="white"/>
<defs>
<linearGradient id="paint0_linear_86_534" x1="10" y1="33.5" x2="71.953" y2="77.0669" gradientUnits="userSpaceOnUse">
<stop stop-color="#F2D477"/>
<stop offset="1" stop-color="#F8C326"/>
</linearGradient>
</defs>
</svg>
