<svg width="12" height="18" viewBox="0 0 12 18" fill="none" xmlns="http://www.w3.org/2000/svg">
<path fill-rule="evenodd" clip-rule="evenodd" d="M11.625 7.74999L11.62 7.95249L11.625 8.16666L11.62 8.36916L11.625 8.58333L11.62 8.78749L11.625 8.99999L11.49 14.9192C11.4745 15.5981 11.2128 16.2484 10.7534 16.7486C10.2941 17.2489 9.66854 17.5651 8.99333 17.6383C7.00359 17.8538 4.99641 17.8538 3.00667 17.6383C2.33146 17.5651 1.70591 17.2489 1.24657 16.7486C0.787237 16.2484 0.525452 15.5981 0.51 14.9192L0.375 8.99999L0.38 8.78583L0.375 8.58333L0.38 8.36999L0.375 8.16666L0.38 7.95333L0.375 7.74999L0.511667 2.66833C0.513333 2.59749 0.518333 2.52749 0.526667 2.45833L0.529167 2.42916L0.531667 2.40499C0.566525 2.04785 0.68747 1.70449 0.884134 1.40434C1.0808 1.1042 1.34731 0.856215 1.66083 0.68166C1.97358 0.491967 2.32566 0.376508 2.69 0.34416C4.89201 0.141465 7.10799 0.141465 9.31 0.34416C9.6737 0.376504 10.0252 0.491667 10.3375 0.680826C10.6506 0.854888 10.917 1.10217 11.1138 1.40155C11.3105 1.70093 11.4319 2.0435 11.4675 2.39999L11.4742 2.46166C11.4825 2.52999 11.4867 2.59916 11.4883 2.66833L11.625 7.74999ZM10.2283 2.59999L10.3592 8.32249L10.2533 12.2642C10.2421 12.6925 10.0741 13.1018 9.78118 13.4145C9.48828 13.7272 9.09083 13.9216 8.66417 13.9608C6.8918 14.124 5.1082 14.124 3.33583 13.9608C2.90931 13.9216 2.51198 13.7273 2.2191 13.4148C1.92621 13.1023 1.75813 12.6932 1.74667 12.265L1.64083 8.32333L1.77167 2.60083C1.77167 2.58833 1.77167 2.57583 1.77333 2.56416C1.82333 2.22833 2.01667 1.93916 2.2925 1.76416C2.39944 1.70832 2.51589 1.67299 2.63583 1.65999C4.87167 1.41833 7.1275 1.41833 9.36417 1.65999C9.4875 1.67333 9.60333 1.70916 9.7075 1.76333C9.9825 1.93916 10.1775 2.22916 10.2267 2.56416L10.2283 2.59999ZM6 17.0833C6.33152 17.0833 6.64946 16.9516 6.88388 16.7172C7.1183 16.4828 7.25 16.1648 7.25 15.8333C7.25 15.5018 7.1183 15.1839 6.88388 14.9494C6.64946 14.715 6.33152 14.5833 6 14.5833C5.66848 14.5833 5.35054 14.715 5.11612 14.9494C4.8817 15.1839 4.75 15.5018 4.75 15.8333C4.75 16.1648 4.8817 16.4828 5.11612 16.7172C5.35054 16.9516 5.66848 17.0833 6 17.0833Z" fill="#05203E"/>
</svg>
