<svg width="21" height="18" viewBox="0 0 21 18" fill="none" xmlns="http://www.w3.org/2000/svg">
<path fill-rule="evenodd" clip-rule="evenodd" d="M17.4839 16.7901V16.7881L17.5019 16.7451L20.5009 1.62506V1.57706C20.5009 1.20006 20.3609 0.871058 20.0589 0.674058C19.7939 0.501058 19.4889 0.489058 19.2749 0.505058C19.0758 0.523074 18.8792 0.563324 18.6889 0.625058C18.6078 0.651213 18.5278 0.680569 18.4489 0.713058L18.4359 0.718057L1.71595 7.27706L1.71095 7.27906C1.66011 7.29642 1.61036 7.31678 1.56195 7.34006C1.44304 7.39348 1.32895 7.45705 1.22095 7.53006C1.00595 7.67806 0.596947 8.02606 0.665947 8.57806C0.722947 9.03606 1.03795 9.32606 1.25095 9.47706C1.37667 9.56516 1.51184 9.63895 1.65395 9.69706L1.68595 9.71106L1.69595 9.71406L1.70295 9.71706L4.62895 10.7021C4.61895 10.8851 4.63695 11.0721 4.68595 11.2571L6.15095 16.8161C6.23098 17.1191 6.40392 17.3894 6.64547 17.5891C6.88702 17.7888 7.18506 17.9078 7.49772 17.9294C7.81039 17.9511 8.12197 17.8742 8.38871 17.7097C8.65546 17.5451 8.86396 17.3012 8.98495 17.0121L11.2729 14.5661L15.2019 17.5781L15.2579 17.6021C15.6149 17.7581 15.9479 17.8071 16.2529 17.7661C16.5579 17.7241 16.7999 17.5961 16.9819 17.4511C17.1925 17.2804 17.3602 17.063 17.4719 16.8161L17.4799 16.7991L17.4829 16.7931L17.4839 16.7901ZM6.13595 10.8751C6.11972 10.8134 6.12358 10.7481 6.14696 10.6888C6.17033 10.6294 6.21201 10.5791 6.26595 10.5451L16.1869 4.24506C16.1869 4.24506 16.7709 3.89006 16.7499 4.24506C16.7499 4.24506 16.8539 4.30706 16.5409 4.59806C16.2449 4.87506 9.46995 11.4161 8.78395 12.0781C8.7458 12.1151 8.71908 12.1623 8.70695 12.2141L7.60095 16.4341L6.13595 10.8741V10.8751Z" fill="#05203E"/>
</svg>
